<?xml version="1.0" encoding="utf-8"?>
<!-- Generator: Adobe Illustrator 17.0.0, SVG Export Plug-In . SVG Version: 6.00 Build 0)  -->
<!DOCTYPE svg PUBLIC "-//W3C//DTD SVG 1.1//EN" "http://www.w3.org/Graphics/SVG/1.1/DTD/svg11.dtd">
<svg version="1.1" xmlns="http://www.w3.org/2000/svg" xmlns:xlink="http://www.w3.org/1999/xlink" x="0px" y="0px" width="1024px"
	 height="1024px" viewBox="0 0 1024 1024" enable-background="new 0 0 1024 1024" xml:space="preserve">
<g id="background">
	<rect fill="#424242" width="1024" height="1024"/>
</g>
<g id="Layer_2">
	<g>
		<path fill="#FFFFFF" d="M113.003,322.173l-9.855-7.193l-10.089-4.761l-4.941-12.054l3.623-12.498l9.281-9.331l12.272,0.854
			l12.579-1.685l7.634,10.568l5.692,12.406l-9.633,9.633l-5.485,8.032L113.003,322.173z M96.116,307.331l9.032,4.294l8.158,5.918
			l8.078-4.393l5.179-7.534l7.94-7.982l-4.37-9.599l-6.063-8.339l-10.656,1.398l-10.87-0.724l-7.316,7.35l-2.965,10.223
			L96.116,307.331z"/>
	</g>
	<g>
		<path fill="#FFFFFF" d="M174.667,321.974l-11.445-9.591l-1.383-12.238l-4.681-11.338l6.902-11.575l11.839-4.512l10.744,2.283
			l12.13,1.563l9.656,11.23l-5.883,12.613l-1.77,13.463l-13.41,2.153L174.667,321.974z M166.945,310.384l8.327,6.979l11.204-5.167
			l10.794-1.731l1.597-11.437l4.937-10.595l-7.021-8.166l-10.798-1.398l-9.771-2.072l-9.48,3.616l-5.202,8.718l4.175,10.303
			L166.945,310.384z"/>
	</g>
	<g>
		<path fill="#FFFFFF" d="M259.182,317.523l-12.793-0.781l-12.682,0.184l-6.01-11.338l-3.52-10.709l2.919-11.234l6.297-11.384
			l13.283-0.705l11.713,2.681l7.94,8.641l7.232,11.663l-4.229,13.54L259.182,317.523z M246.481,312.823l11.261,0.686l8.159-7.588
			l3.386-10.844l-6.071-9.844l-6.883-7.442l-9.993-2.291l-10.564,0.559l-5.125,9.262l-2.39,9.419l3.034,9.319l4.753,8.913
			L246.481,312.823z"/>
	</g>
	<g>
		<path fill="#FFFFFF" d="M249.719,470.037l-23.635-1.869l-11.16-21.193l-7.837-15.58l-15.158-17.719l13.193-18.82l8.331-16.166
			l13.366-19.372l22.262,6.31l22.654-8.429l22.986,11.347l2.792,25.217l9.599,19.429l-2.419,23.807l-20.919,11.903l-16.267,8.494
			L249.719,470.037z M228.547,464.429l20.061,1.586l16.857-11.956l16.432-8.599l19.1-10.868l2.099-20.67l-9.444-19.381
			l-2.593-23.426l-19.542-9.647l-22.271,8.287l-20.795-5.897l-11.642,16.847l-8.339,16.177l-11.585,16.554l13.599,15.984
			l7.927,15.76L228.547,464.429z"/>
	</g>
	<g>
		<path fill="#FFFFFF" d="M113.914,469.257l-7.448-3.913l-7.902,2.273l-8.859-2.086l-0.423-0.536
			c-9.62-12.175-19.195-23.614-29.275-34.972l-0.728-0.822l2.557-8.43c-4.116-7.188-5.131-15.302-2.932-23.522l0.13-0.485
			l0.347-0.362c5.228-5.473,9.202-11.905,11.811-19.109l0.339-0.938l8.109-2.359l2.907-8.381l0.776-0.345
			c9.74-4.345,19.695-6.73,30.437-7.291c5.609,0.293,10.558,2.053,14.907,5.238l7.977,0.059l5.596,5.514l8.503,1.371l0.469,0.571
			c10.208,12.351,16.323,26.609,18.178,42.376l0.155,8.517l-0.322,0.5c-5.529,8.57-9.691,17.443-12.728,27.124l-0.352,1.126
			l-1.159,0.216c-7.588,1.417-13.574,5.613-17.315,12.134l-0.611,1.067l-1.226-0.084c-7.408-0.517-14.494,1.185-20.978,4.997
			L113.914,469.257z M106.895,461.139l6.927,3.641c6.556-3.635,13.643-5.33,21.074-5.05c4.152-6.626,10.407-11.01,18.209-12.755
			c3.049-9.407,7.145-18.083,12.498-26.471l-0.123-7.13c-1.724-14.574-7.389-27.946-16.826-39.574l-8.277-1.335l-5.355-5.276
			l-7.689-0.059l-0.523-0.4c-3.834-2.945-8.227-4.571-13.055-4.83c-9.765,0.519-19.015,2.683-28.063,6.613l-3.013,8.683
			l-8.149,2.373c-2.735,7.182-6.755,13.624-11.962,19.171c-1.825,7.291-0.768,14.457,3.07,20.758l0.456,0.751l-2.426,7.994
			c9.715,10.979,18.973,22.047,28.266,33.787l6.531,1.538L106.895,461.139z"/>
	</g>
	<g>
		<path fill="#FFFFFF" d="M146.077,408.913l-23.572-8.616l-11.759-19.848l1.249-1.072c2.135-1.835,4.935-2.718,7.406-3.499
			l1.036-0.329c0.756-0.249,1.559-0.603,2.382-0.963c2.068-0.906,4.445-1.932,6.749-1.76c2.43,0.184,3.895,2.317,5.19,4.2
			c0.693,1.009,1.48,2.155,2.107,2.471c0.686,0.347,1.388,0.599,2.078,0.852c1.704,0.624,3.637,1.333,5.203,3.158
			c0.565,0.659,1.436,1.281,2.358,1.938c1.659,1.182,3.537,2.522,4.231,4.646c0.724,2.208-0.067,4.422-0.764,6.375
			c-0.372,1.04-0.722,2.024-0.783,2.817c-0.214,2.834-0.931,5.324-2.323,8.076L146.077,408.913z M125.168,397.095l18.922,6.916
			c0.686-1.672,1.051-3.246,1.187-5.025c0.102-1.32,0.557-2.601,1-3.84c0.509-1.427,1.036-2.903,0.732-3.838
			c-0.295-0.896-1.559-1.798-2.781-2.672c-1.072-0.764-2.181-1.555-3.057-2.576c-0.9-1.049-2.082-1.482-3.576-2.03
			c-0.831-0.305-1.674-0.617-2.499-1.034c-1.521-0.77-2.562-2.285-3.57-3.75c-0.634-0.923-1.697-2.469-2.254-2.511
			c-1.588,0.033-3.252,0.73-4.878,1.442c-0.946,0.414-1.869,0.814-2.739,1.097l-1.072,0.343c-1.565,0.494-3.284,1.038-4.692,1.819
			L125.168,397.095z"/>
	</g>
	<g>
		<path fill="#FFFFFF" d="M259.05,411.998l-29.52-20.314l29.277-8.836l12.063,9.015L259.05,411.998z M238.477,393.083l19.324,13.297
			l7.91-13.475l-7.666-5.728L238.477,393.083z"/>
	</g>
	<g>
		<path fill="#FFFFFF" d="M139.38,703.632l-12.548-10.081c-8.017-1.716-16.206-2.057-24.361-1.004l-0.709,0.092l-0.601-0.387
			c-7.182-4.623-14.187-9.694-20.818-15.068l-0.387-0.314l-0.188-0.464c-4.581-11.119-10.181-21.917-16.643-32.102l-12.605-8.894
			l-0.126-0.827c-1.298-8.522-2.271-17.202-2.892-25.797l-0.031-0.46l0.172-0.421c3.179-7.798,6.492-15.601,9.848-23.208
			l-0.295-13.26l0.222-0.437c8.882-17.535,20.262-29.24,34.771-35.775l8.266-11.878l0.896-0.088
			c5.546-0.563,11.587-0.835,18.458-0.835c6.504,0,13.1,0.241,19.481,0.471c8.147,0.295,16.554,0.609,24.805,0.406l0.666-0.015
			l10.403,7.611c12.464,2.957,24.123,8.473,34.66,16.401l0.54,0.406l0.176,0.655c2.179,8.185,4.386,16.363,6.619,24.529
			l11.644,9.043l2.118,14.13l-5.278,12.69c2.501,8.381,4.045,17.056,4.592,25.797l0.027,0.414l-5.014,13.509l-14.092,6.55
			c-2.85,7.825-7.12,14.927-12.701,21.124l-0.329,0.364l-0.463,0.169c-13.502,4.841-26.364,11.261-38.805,17.47
			c-5.971,2.984-12.15,6.063-18.378,8.967L139.38,703.632z M111.764,688.028c5.458,0,10.962,0.601,16.359,1.789l0.448,0.1
			l11.361,9.128c5.807-2.731,11.583-5.611,17.179-8.404c12.399-6.186,25.215-12.582,38.762-17.485
			c5.251-5.925,9.242-12.724,11.866-20.212l0.272-0.781l14.122-6.569l4.164-11.211c-0.567-8.53-2.114-16.995-4.608-25.165
			l-0.203-0.674l5.401-12.977l-1.727-11.495l-11.437-8.882l-0.172-0.632c-2.233-8.166-4.443-16.344-6.623-24.525
			c-10.066-7.465-21.178-12.644-33.04-15.402l-0.712-0.329l-9.652-7.059c-8.124,0.18-16.386-0.13-24.372-0.425
			c-6.347-0.23-12.908-0.467-19.339-0.467c-6.37,0-11.996,0.237-17.167,0.728l-7.86,11.295l-0.506,0.222
			c-13.77,6.052-24.613,17.095-33.136,33.745l0.287,13.149l-0.176,0.398c-3.336,7.557-6.634,15.317-9.806,23.074
			c0.598,8.067,1.501,16.206,2.7,24.211l12.081,8.702c6.584,10.33,12.291,21.289,16.972,32.576
			c6.22,5.021,12.77,9.767,19.488,14.118C105.712,688.208,108.761,688.028,111.764,688.028z"/>
	</g>
	<g>
		<polygon fill="#FFFFFF" points="172.087,596.549 170.632,592.91 186.255,586.659 190.139,575.912 182.885,565.183 
			179.173,550.996 166.583,545.281 152.38,541.389 138.68,549.701 142.475,575.839 138.591,576.406 134.428,547.694 
			151.791,537.161 167.916,541.604 182.498,548.2 186.592,563.858 194.513,575.345 189.343,589.647 		"/>
	</g>
	<g>
		<polygon fill="#FFFFFF" points="133.478,677.628 118.908,676.28 106.697,668.432 93.743,661.844 86.707,648.656 80.835,637.257 
			65.065,627.724 69.689,610.641 73.473,611.667 69.623,625.893 83.815,634.477 90.181,646.837 96.623,658.91 108.646,665.035 
			120.221,672.465 133.838,673.722 		"/>
	</g>
	<g>
		<path fill="#FFFFFF" d="M399.113,98.954H62.988V79.558h336.126V98.954z M66.91,95.032h328.281V83.48H66.91V95.032z"/>
	</g>
	<circle fill="#FFFFFF" cx="380.223" cy="149.667" r="19.011"/>
	<path fill="#FFFFFF" d="M343.524,149.667c-7.604,8.4-14.414,15.209-22.813,22.813c-8.4-7.604-15.209-14.414-22.813-22.813
		c7.604-8.4,14.414-15.209,22.813-22.813C329.11,134.458,335.919,141.268,343.524,149.667z"/>
	<path fill="#FFFFFF" d="M283.891,149.667c-15.209,6.3-20.316,11.407-26.616,26.616c-6.3-15.209-11.407-20.316-26.616-26.616
		c15.209-6.3,20.316-11.407,26.616-26.616C263.575,138.26,268.682,143.367,283.891,149.667z"/>
	<path fill="#FFFFFF" d="M220.337,149.667c-22.813,4.2-26.218,7.604-30.418,30.418c-4.2-22.813-7.604-26.218-30.418-30.418
		c22.813-4.2,26.218-7.604,30.418-30.418C194.119,142.063,197.523,145.467,220.337,149.667z"/>
	<path fill="#FFFFFF" d="M148.938,149.667c-30.418,2.1-32.12,3.802-34.22,34.22c-2.1-30.418-3.802-32.12-34.22-34.22
		c30.418-2.1,32.12-3.802,34.22-34.22C116.818,145.865,118.52,147.567,148.938,149.667z"/>
	<g>
		<path fill="#FFFFFF" d="M319.157,317.47l-5.23-12.75l-12.716,5.313l5.316-12.714l-12.751-5.228l12.751-5.231l-5.316-12.714
			l12.716,5.313l5.23-12.75l5.23,12.75l12.714-5.313l-5.313,12.714l12.75,5.231l-12.75,5.228l5.313,12.714l-12.714-5.313
			L319.157,317.47z M315.736,300.354l3.421,8.338l3.421-8.338l8.322,3.478l-3.478-8.322l8.338-3.419l-8.338-3.422l3.478-8.322
			l-8.322,3.478l-3.421-8.338l-3.421,8.338l-8.32-3.478l3.478,8.322l-8.338,3.422l8.338,3.419l-3.478,8.322L315.736,300.354z"/>
	</g>
	<polygon fill="#FFFFFF" points="399.594,292.09 386.818,286.849 392.145,274.106 379.401,279.432 374.161,266.656 368.92,279.432 
		356.177,274.105 361.502,286.849 348.727,292.09 361.502,297.331 356.176,310.074 368.92,304.748 374.161,317.523 379.401,304.748 
		392.144,310.074 386.818,297.331 	"/>
	<g>
		<polygon fill="#FFFFFF" points="364.86,711.034 345.918,701.179 324.646,703.036 310.948,686.652 290.586,680.22 284.155,659.858 
			267.772,646.16 269.629,624.888 259.775,605.947 269.818,585.072 268.527,561.94 285.828,546.53 293.493,524.667 315.357,517.001 
			330.766,499.699 353.897,500.991 374.772,490.947 397.774,501.199 422.95,500.529 440.243,518.841 463.757,527.864 
			472.779,551.378 491.09,568.672 490.419,593.848 500.664,617.087 496.187,612.85 495.7,620.85 495.21,612.85 494.72,620.85 
			494.229,612.85 493.736,620.85 493.243,612.85 488.757,617.1 494.419,593.055 480.079,573.244 476.163,549.103 455.327,536.295 
			442.518,515.459 418.378,511.543 398.567,497.203 374.772,502.873 353.105,496.995 335.338,510.714 313.081,513.619 
			301.923,533.098 282.443,544.256 279.538,566.513 265.819,584.279 271.697,605.947 265.63,625.681 278.784,641.589 
			280.771,662.134 299.016,671.792 308.673,690.037 329.218,692.024 345.125,705.179 364.86,699.111 382.836,705.351 
			397.054,692.71 416.042,691.557 424.334,674.433 441.458,666.14 442.609,647.151 455.249,632.934 449.01,614.958 455.406,598.58 
			443.232,585.899 442.839,568.326 426.735,561.274 419.683,545.171 402.11,544.778 389.43,532.605 373.053,539.001 
			358.127,532.462 346.842,544.211 330.555,543.914 324.63,559.091 309.453,565.015 309.749,581.302 298,592.586 304.538,607.511 
			297.87,621.116 309.234,631.131 308.31,646.249 322.644,651.148 327.544,665.482 342.662,664.557 352.676,675.92 366.281,669.252 
			378.685,676.038 387.546,665.025 401.6,666.52 405.568,652.951 419.136,648.984 417.641,634.929 428.653,626.068 421.868,613.665 
			428.76,602.353 418.066,594.542 420.079,581.454 407.207,578.334 404.087,565.463 390.999,567.477 383.188,556.783 
			371.877,563.675 361.557,556.686 354.7,567.09 342.49,564.605 340.14,576.843 327.902,579.193 330.387,591.402 319.983,598.258 
			326.972,608.578 319.894,617.996 330.035,623.986 327.122,635.397 338.785,637.046 340.435,648.709 351.845,645.795 
			357.836,655.936 367.254,648.858 375.851,656.016 381.053,646.115 391.737,649.417 392.75,638.278 403.89,637.265 
			400.587,626.581 410.488,621.379 403.33,612.782 410.56,604.93 400.877,600.445 404.533,590.42 393.869,589.987 393.434,579.323 
			383.41,582.981 378.924,573.298 371.072,580.528 363.898,573.231 360.065,582.716 350.64,578.738 350.732,588.969 
			340.501,588.877 344.48,598.301 334.996,602.134 342.293,609.308 334.935,615.866 344.241,619.107 339.97,627.986 
			349.808,627.415 349.239,637.254 358.117,632.982 361.358,642.287 367.916,634.929 373.914,642.342 376.617,633.2 385,637.738 
			383.995,628.258 393.475,629.263 388.938,620.88 398.079,618.178 390.667,612.181 398.129,606.691 389.136,604.478 
			393.914,596.546 384.759,597.947 386.158,588.791 378.226,593.571 376.013,584.578 370.525,592.04 365.499,584.533 
			363.731,593.391 356.208,588.392 357.968,597.252 349.108,595.493 354.107,603.015 345.25,604.782 352.757,609.808 
			345.208,614.413 353.943,615.776 348.745,622.926 357.337,620.839 355.251,629.431 362.4,624.231 363.764,632.966 
			368.368,625.417 372.59,633.003 373.587,624.38 380.397,629.761 378.014,621.413 386.362,623.797 380.982,616.986 
			389.604,615.991 382.318,610.249 386.502,615.769 386.989,607.769 387.479,615.769 387.969,607.769 388.46,615.769 
			388.953,607.769 389.446,615.769 393.724,610.471 385.605,615.199 391.992,621.559 382.977,621.523 386.443,629.845 
			378.121,626.38 378.158,635.395 371.798,629.007 368.368,637.343 364.556,628.97 357.827,635.245 357.525,626.048 
			348.906,629.269 352.128,620.65 342.932,620.348 349.208,613.62 340.835,609.808 349.249,605.575 343.096,598.442 
			352.493,597.766 349.539,588.821 358.485,591.773 359.159,582.376 366.292,588.529 370.525,580.114 375.221,588.574 
			382.799,582.557 383.884,592.174 393.189,589.517 390.531,598.821 400.147,599.907 394.13,607.484 402.589,612.181 
			394.08,617.386 399.949,625.453 390.09,626.99 392.424,636.69 382.724,634.357 381.188,644.215 373.121,638.346 367.916,646.855 
			362.151,638.291 353.544,643.996 351.513,633.871 341.378,635.846 343.354,625.711 333.229,623.679 338.935,615.073 
			330.371,609.308 338.995,602.926 333.469,593.729 343.886,591.15 342.303,580.537 352.917,582.119 355.493,571.702 
			364.691,577.227 371.072,568.602 378.132,577.293 387.982,571.966 391.159,582.706 402.299,581.556 401.149,592.696 
			411.888,595.873 406.561,605.722 415.252,612.782 406.488,620.587 411.598,631.153 400.505,634.991 401.18,646.71 
			389.461,646.036 385.625,657.129 375.059,652.02 367.254,660.784 358.628,651.94 347.273,656.81 342.709,645.327 330.355,645.477 
			330.506,633.122 319.023,628.558 323.894,617.204 315.05,608.578 323.982,599.051 319.376,586.829 331.287,581.466 
			331.711,568.412 344.766,567.987 350.128,556.075 362.35,560.682 371.877,551.749 382.396,560.779 395.572,556.463 
			401.813,568.846 415.638,569.904 416.695,583.729 429.078,589.97 424.761,603.145 433.79,613.665 424.654,625.276 
			428.652,639.501 415.751,646.709 413.996,661.382 399.324,663.136 392.117,676.038 377.892,672.04 366.281,681.177 
			353.469,671.922 338.089,675.569 329.819,662.098 314.214,659.577 311.694,643.973 298.222,635.702 301.87,620.323 
			292.616,607.511 301.999,593.378 298.738,576.729 312.837,567.289 316.201,550.659 332.831,547.296 342.271,533.197 
			358.92,536.458 373.053,527.074 388.638,536.6 406.683,533.764 417.409,548.553 435.166,552.844 439.455,570.601 454.243,581.327 
			451.406,599.372 460.932,614.958 451.25,632.142 453.62,651.724 438.073,663.865 432.763,682.863 413.766,688.173 
			401.625,703.721 382.043,701.351 		"/>
	</g>
	<g>
		<path fill="#FFFFFF" stroke="#FFFFFF" stroke-width="0.2835" stroke-miterlimit="10" d="M217.889,240.021l-5.77-4.444l-5.77,4.443
			l5.77-32.635L217.889,240.021z M212.118,233.471l3.079,2.372l-3.079-17.419l-3.079,17.418L212.118,233.471z"/>
	</g>
	<polygon fill="#FFFFFF" points="241.324,207.377 235.554,240.012 241.324,235.568 247.094,240.012 	"/>
	<g>
		<path fill="#FFFFFF" d="M399.113,68.954H62.988V49.558h336.126V68.954z"/>
	</g>
	<g>
		<path fill="#FFFFFF" d="M99.521,239.756c-3.123,0-5.664-2.541-5.664-5.663v-15.301c0-3.123,2.541-5.663,5.664-5.663
			c3.123,0,5.663,2.541,5.663,5.663v15.301C105.184,237.216,102.644,239.756,99.521,239.756z M99.521,215.964
			c-1.56,0-2.829,1.269-2.829,2.828v15.301c0,1.56,1.269,2.828,2.829,2.828s2.828-1.269,2.828-2.828v-15.301
			C102.349,217.232,101.081,215.964,99.521,215.964z"/>
	</g>
	<g>
		<path fill="#FFFFFF" d="M151.467,235.332c-4.901,0-8.889-3.988-8.889-8.889c0-4.902,3.988-8.89,8.889-8.89
			c4.902,0,8.89,3.988,8.89,8.89C160.356,231.344,156.369,235.332,151.467,235.332z M151.467,220.388
			c-3.338,0-6.054,2.716-6.054,6.055c0,3.338,2.716,6.054,6.054,6.054c3.339,0,6.055-2.716,6.055-6.054
			C157.521,223.104,154.806,220.388,151.467,220.388z"/>
	</g>
	<g>
		<path fill="#FFFFFF" d="M122.768,239.756c-3.123,0-5.663-2.541-5.663-5.663v-15.301c0-3.123,2.541-5.663,5.663-5.663
			c3.123,0,5.664,2.541,5.664,5.663v15.301C128.431,237.216,125.891,239.756,122.768,239.756z"/>
	</g>
	<g>
		<path fill="#FFFFFF" d="M181.068,235.332c-4.902,0-8.89-3.988-8.89-8.889c0-4.902,3.988-8.89,8.89-8.89
			c4.901,0,8.889,3.988,8.889,8.89C189.958,231.344,185.97,235.332,181.068,235.332z"/>
	</g>
</g>
</svg>
